# xmcd CD database file
#
# Track frame offsets:
#	150
#	14325
#	39074
#	62176
#	74923
#	85959
#	115538
#	132405
#	163586
#	183994
#	202312
#	216570
#	252291
#
# Disc length: 3495 seconds
#
# Revision: 0
# Processed by: cddbd v1.5.2PL0 Copyright (c) Steve Scherf et al.
# Submitted via: CDex 2.23
#
DISCID=c40da50d
DTITLE=David Axelrod - The Edge Of Music: An Exploration Of 50 Years In Music
DYEAR=2006
DGENRE=Jazz
TTITLE0=Loved Boy (featuring Lou Rawls)
TTITLE1=Holy Thursday
TTITLE2=The Leading Citizen
TTITLE3=London
TTITLE4=A Dream
TTITLE5=The Auction
TTITLE6=The Sign (Part 1)
TTITLE7=Everything Counts
TTITLE8=Song of Innocence
TTITLE9=Mental Traveler
TTITLE10=The Poison Tree
TTITLE11=Aquarius (Nat Adderley Sextet with Cannonball Adderley)
TTITLE12=Love Is A Hurtin' Thing (Lou Rawls)
EXTD=YEAR: 2006
EXTT0=
EXTT1=
EXTT2=
EXTT3=
EXTT4=
EXTT5=
EXTT6=
EXTT7=
EXTT8=
EXTT9=
EXTT10=
EXTT11=
EXTT12=
PLAYORDER=
